<svg xmlns="http://www.w3.org/2000/svg"  viewBox="0 0 100 100" width="500px" height="500px"><path fill="#c7ede6" d="M88.834,56.022c0.3-0.616,0.566-1.264,0.796-1.943c2.633-7.77-1.349-17.078-9.733-19.325C78.99,23.371,70.99,15.562,61.955,14.229c-10.341-1.525-19.814,5.044-22.966,15.485c-3.799-1.346-7.501-1.182-10.99,0.857c-1.583,0.732-3.031,1.812-4.33,3.233c-1.907,2.086-3.147,4.719-3.652,7.495c-0.748,0.118-1.483,0.236-2.176,0.484c-4.04,1.449-6.589,4.431-7.288,8.923c-0.435,2.797,0.443,5.587,0.933,6.714c1.935,4.455,6.422,6.98,10.981,6.312c0.227-0.033,0.557,0.069,0.752,0.233c0.241,7.12,3.698,13.417,8.884,17.014c8.321,5.772,19.027,3.994,25.781-3.921c2.894,2.96,6.338,4.398,10.384,3.876c4.023-0.519,7.147-2.739,9.426-6.349c1.053,0.283,2.051,0.691,3.083,0.804c4.042,0.442,7.324-1.165,9.732-4.8c0.922-1.391,1.793-3.194,1.793-6.354C92.304,60.979,91.01,58.012,88.834,56.022z"/><path fill="#fdfcef" d="M76.939,49.394c0,0,11.691,0,11.762,0c2.7,0,4.888-2.189,4.888-4.889c0-2.355-1.666-4.321-3.884-4.784c0.026-0.206,0.043-0.415,0.043-0.628c0-2.796-2.267-5.063-5.063-5.063c-1.651,0-3.113,0.794-4.037,2.017c-0.236-3.113-3.017-5.514-6.27-5.116c-2.379,0.291-4.346,2.13-4.784,4.486c-0.14,0.756-0.126,1.489,0.014,2.177c-0.638-0.687-1.546-1.119-2.557-1.119c-1.85,0-3.361,1.441-3.48,3.261c-0.84-0.186-1.754-0.174-2.717,0.188c-1.84,0.691-3.15,2.423-3.227,4.387c-0.109,2.789,2.12,5.085,4.885,5.085c0.21,0,0.948,0,1.118,0h10.151"/><path fill="#472b29" d="M88.701,49.894H76.939c-0.276,0-0.5-0.224-0.5-0.5s0.224-0.5,0.5-0.5h11.762c2.42,0,4.389-1.969,4.389-4.389c0-2.066-1.466-3.873-3.486-4.295c-0.254-0.053-0.426-0.292-0.394-0.55c0.022-0.186,0.039-0.375,0.039-0.567c0-2.516-2.047-4.563-4.563-4.563c-1.438,0-2.765,0.663-3.638,1.818c-0.125,0.166-0.341,0.237-0.539,0.179c-0.2-0.059-0.342-0.235-0.358-0.442c-0.104-1.377-0.778-2.67-1.85-3.548c-1.082-0.888-2.451-1.284-3.861-1.11c-2.165,0.265-3.955,1.943-4.353,4.081c-0.124,0.667-0.12,1.335,0.013,1.986c0.044,0.22-0.062,0.442-0.262,0.544c-0.197,0.102-0.441,0.061-0.595-0.104c-0.575-0.619-1.353-0.959-2.19-0.959c-1.568,0-2.878,1.227-2.98,2.794c-0.01,0.146-0.082,0.28-0.199,0.367c-0.116,0.087-0.266,0.119-0.408,0.088c-0.839-0.186-1.637-0.132-2.433,0.167c-1.669,0.626-2.836,2.209-2.903,3.938c-0.047,1.207,0.387,2.35,1.222,3.218c0.835,0.869,1.959,1.347,3.163,1.347h11.27c0.276,0,0.5,0.224,0.5,0.5s-0.224,0.5-0.5,0.5h-11.27c-1.479,0-2.858-0.587-3.884-1.653s-1.559-2.469-1.501-3.951c0.084-2.126,1.511-4.069,3.552-4.835c0.801-0.301,1.628-0.4,2.468-0.299c0.377-1.822,1.997-3.182,3.904-3.182c0.685,0,1.354,0.18,1.944,0.51c-0.001-0.385,0.035-0.773,0.107-1.159c0.476-2.562,2.619-4.573,5.214-4.891c1.682-0.208,3.32,0.267,4.617,1.329c1.003,0.823,1.715,1.95,2.037,3.192c1.012-0.916,2.318-1.425,3.713-1.425c3.067,0,5.563,2.496,5.563,5.563c0,0.083-0.002,0.166-0.007,0.249c2.254,0.672,3.848,2.777,3.848,5.164C94.089,47.476,91.672,49.894,88.701,49.894z"/><path fill="#fdfcef" d="M74.106,38.625c-1.808-0.119-3.365,1.13-3.476,2.789c-0.014,0.206-0.005,0.409,0.025,0.606c-0.349-0.394-0.865-0.661-1.458-0.7c-1.085-0.071-2.022,0.645-2.158,1.62c-0.197-0.054-0.403-0.09-0.616-0.104c-1.582-0.104-2.944,0.989-3.042,2.441"/><path fill="#472b29" d="M63.381,45.526c-0.006,0-0.011,0-0.017,0c-0.138-0.009-0.242-0.128-0.232-0.266c0.105-1.587,1.588-2.79,3.308-2.673c0.135,0.009,0.271,0.027,0.408,0.053c0.273-0.968,1.254-1.637,2.365-1.568c0.419,0.027,0.821,0.163,1.163,0.384c0.001-0.019,0.002-0.039,0.004-0.058c0.119-1.794,1.798-3.142,3.742-3.022c0.138,0.009,0.242,0.128,0.232,0.266c-0.008,0.137-0.11,0.251-0.266,0.233c-1.66-0.109-3.108,1.038-3.211,2.557c-0.012,0.186-0.004,0.372,0.023,0.551c0.017,0.11-0.04,0.217-0.141,0.265c-0.102,0.044-0.22,0.022-0.294-0.061c-0.317-0.359-0.787-0.583-1.287-0.616c-0.929-0.06-1.774,0.555-1.893,1.405c-0.011,0.071-0.051,0.134-0.11,0.174c-0.06,0.04-0.135,0.051-0.203,0.033c-0.189-0.051-0.38-0.084-0.567-0.096c-1.447-0.094-2.688,0.896-2.776,2.208C63.622,45.425,63.512,45.526,63.381,45.526z"/><path fill="#fdfcef" d="M90.68,40.294c-1.699-0.801-3.664-0.234-4.389,1.267c-0.09,0.186-0.157,0.379-0.201,0.574"/><path fill="#472b29" d="M86.09,42.384c-0.019,0-0.037-0.002-0.057-0.006c-0.134-0.031-0.218-0.165-0.187-0.3c0.05-0.217,0.123-0.427,0.219-0.626c0.784-1.623,2.9-2.242,4.721-1.384c0.125,0.059,0.179,0.208,0.12,0.333c-0.06,0.126-0.21,0.178-0.333,0.12c-1.575-0.741-3.393-0.227-4.057,1.149c-0.08,0.165-0.142,0.34-0.184,0.521C86.307,42.306,86.205,42.384,86.09,42.384z"/><path fill="#fff" d="M18.499 48.058H8.468c-.276 0-.5-.224-.5-.5s.224-.5.5-.5h10.03c.276 0 .5.224.5.5S18.775 48.058 18.499 48.058zM21.38 48.058h-1.446c-.276 0-.5-.224-.5-.5s.224-.5.5-.5h1.446c.276 0 .5.224.5.5S21.657 48.058 21.38 48.058zM25.434 48.058h-2.546c-.276 0-.5-.224-.5-.5s.224-.5.5-.5h2.546c.276 0 .5.224.5.5S25.71 48.058 25.434 48.058zM25.434 49.923h-9.616c-.276 0-.5-.224-.5-.5s.224-.5.5-.5h9.616c.276 0 .5.224.5.5S25.71 49.923 25.434 49.923zM14.086 49.923h-.58c-.276 0-.5-.224-.5-.5s.224-.5.5-.5h.58c.276 0 .5.224.5.5S14.363 49.923 14.086 49.923zM11.709 49.923h-1.456c-.276 0-.5-.224-.5-.5s.224-.5.5-.5h1.456c.276 0 .5.224.5.5S11.986 49.923 11.709 49.923zM20.845 46.194h-5.027c-.276 0-.5-.224-.5-.5s.224-.5.5-.5h5.027c.276 0 .5.224.5.5S21.122 46.194 20.845 46.194zM20.845 44.328h-1.257c-.276 0-.5-.224-.5-.5s.224-.5.5-.5h1.257c.276 0 .5.224.5.5S21.122 44.328 20.845 44.328zM17.577 51.788h-1.759c-.276 0-.5-.224-.5-.5s.224-.5.5-.5h1.759c.276 0 .5.224.5.5S17.853 51.788 17.577 51.788zM71.676 21.781h-10.03c-.276 0-.5-.224-.5-.5s.224-.5.5-.5h10.03c.276 0 .5.224.5.5S71.953 21.781 71.676 21.781zM74.558 21.781h-1.446c-.276 0-.5-.224-.5-.5s.224-.5.5-.5h1.446c.276 0 .5.224.5.5S74.834 21.781 74.558 21.781zM78.613 21.781h-2.546c-.276 0-.5-.224-.5-.5s.224-.5.5-.5h2.546c.276 0 .5.224.5.5S78.889 21.781 78.613 21.781zM76.586 18.051H66.97c-.276 0-.5-.224-.5-.5s.224-.5.5-.5h9.616c.276 0 .5.224.5.5S76.863 18.051 76.586 18.051zM65.239 18.051h-.58c-.276 0-.5-.224-.5-.5s.224-.5.5-.5h.58c.276 0 .5.224.5.5S65.515 18.051 65.239 18.051zM62.862 18.051h-1.456c-.276 0-.5-.224-.5-.5s.224-.5.5-.5h1.456c.276 0 .5.224.5.5S63.138 18.051 62.862 18.051zM74.024 19.916h-5.028c-.276 0-.5-.224-.5-.5s.224-.5.5-.5h5.028c.276 0 .5.224.5.5S74.3 19.916 74.024 19.916z"/><path fill="#fff" d="M74.024 18.051h-1.258c-.276 0-.5-.224-.5-.5s.224-.5.5-.5h1.258c.276 0 .5.224.5.5S74.3 18.051 74.024 18.051zM67.541 19.916h-1.759c-.276 0-.5-.224-.5-.5s.224-.5.5-.5h1.759c.276 0 .5.224.5.5S67.817 19.916 67.541 19.916z"/><path fill="#f98869" d="M66.945,72.992H37.232c-3.766,0-6.847-3.081-6.847-6.847V36.431c0-3.766,3.081-6.847,6.847-6.847h29.713c3.766,0,6.847,3.081,6.847,6.847v29.713C73.792,69.91,70.711,72.992,66.945,72.992z"/><path fill="#472b29" d="M66.945,73.692H37.232c-4.162,0-7.548-3.386-7.548-7.547V36.431c0-4.162,3.386-7.547,7.548-7.547h29.713c4.162,0,7.548,3.386,7.548,7.547v29.713C74.493,70.306,71.107,73.692,66.945,73.692z M37.232,30.284c-3.39,0-6.147,2.757-6.147,6.147v29.713c0,3.39,2.758,6.147,6.147,6.147h29.713c3.39,0,6.147-2.757,6.147-6.147V36.431c0-3.39-2.758-6.147-6.147-6.147H37.232z"/><path fill="#fdfcee" d="M65.143,69.891H39.034c-3.052,0-5.549-2.497-5.549-5.549V38.234c0-3.052,2.497-5.549,5.549-5.549h26.109c3.052,0,5.549,2.497,5.549,5.549v26.109C70.692,67.394,68.195,69.891,65.143,69.891z"/><path fill="#472b29" d="M65.038 70.241H39.139c-3.311 0-6.004-2.694-6.004-6.004V38.339c0-3.311 2.693-6.004 6.004-6.004h24.662c.193 0 .35.157.35.35s-.156.35-.35.35H39.139c-2.925 0-5.305 2.379-5.305 5.304v25.898c0 2.925 2.38 5.304 5.305 5.304h25.898c2.925 0 5.305-2.379 5.305-5.304V49.91c0-.193.156-.35.35-.35s.35.157.35.35v14.327C71.042 67.548 68.348 70.241 65.038 70.241zM70.692 48.193c-.193 0-.35-.157-.35-.35v-2.756c0-.193.156-.35.35-.35s.35.157.35.35v2.756C71.042 48.036 70.885 48.193 70.692 48.193zM70.692 44.059c-.193 0-.35-.157-.35-.35v-1.378c0-.193.156-.35.35-.35s.35.157.35.35v1.378C71.042 43.902 70.885 44.059 70.692 44.059z"/><path fill="#fdfcef" d="M40.775,75.759c1.883,0,3.517,0,3.54,0c2.11,0,3.821-1.674,3.821-3.739c0-1.802-1.302-3.305-3.035-3.66c0.02-0.158,0.034-0.317,0.034-0.48c0-2.139-1.772-3.873-3.957-3.873c-1.29,0-2.433,0.607-3.155,1.543c-0.185-2.381-2.358-4.218-4.9-3.913c-1.859,0.223-3.397,1.629-3.739,3.431c-0.11,0.578-0.098,1.139,0.011,1.665c-0.498-0.525-1.208-0.856-1.998-0.856c-1.446,0-2.627,1.102-2.72,2.494c-0.657-0.142-1.371-0.133-2.123,0.143c-1.438,0.528-2.462,1.853-2.522,3.356c-0.085,2.133,1.657,3.889,3.818,3.889c0.164,0,0.741,0,0.874,0h7.934 M34.298,75.759h0.36"/><path fill="#472b29" d="M44.316,76.259h-3.541c-0.276,0-0.5-0.224-0.5-0.5s0.224-0.5,0.5-0.5h3.541c1.831,0,3.32-1.453,3.32-3.239c0-1.524-1.108-2.857-2.636-3.17c-0.255-0.052-0.428-0.292-0.396-0.551c0.017-0.138,0.029-0.277,0.029-0.419c0-1.86-1.551-3.373-3.457-3.373c-1.092,0-2.098,0.492-2.76,1.349c-0.126,0.164-0.342,0.232-0.538,0.173c-0.198-0.059-0.34-0.234-0.355-0.44c-0.079-1.019-0.565-1.943-1.369-2.603c-0.829-0.68-1.884-0.984-2.974-0.853c-1.646,0.197-3.006,1.442-3.307,3.028c-0.095,0.494-0.091,0.988,0.009,1.471c0.046,0.219-0.06,0.441-0.258,0.544c-0.197,0.104-0.438,0.064-0.595-0.099c-0.428-0.452-1.009-0.7-1.635-0.7c-1.17,0-2.146,0.891-2.221,2.028c-0.01,0.145-0.082,0.279-0.198,0.366c-0.116,0.088-0.263,0.12-0.406,0.089c-0.64-0.139-1.243-0.098-1.845,0.124c-1.263,0.464-2.146,1.632-2.195,2.906c-0.035,0.875,0.282,1.708,0.895,2.345c0.635,0.661,1.495,1.024,2.423,1.024h8.808c0.276,0,0.5,0.224,0.5,0.5s-0.224,0.5-0.5,0.5h-8.808c-1.185,0-2.331-0.485-3.144-1.332c-0.803-0.835-1.219-1.928-1.174-3.078c0.066-1.674,1.212-3.203,2.85-3.805c0.61-0.225,1.242-0.306,1.88-0.245c0.345-1.396,1.629-2.424,3.136-2.424c0.493,0,0.977,0.113,1.413,0.323c0.009-0.242,0.037-0.484,0.083-0.726c0.381-2.009,2.096-3.585,4.17-3.834c1.365-0.161,2.686,0.218,3.727,1.073c0.748,0.613,1.278,1.409,1.546,2.302c0.791-0.648,1.786-1.007,2.843-1.007c2.458,0,4.457,1.962,4.457,4.373c0,0.034-0.001,0.068-0.002,0.102c1.765,0.555,3.004,2.188,3.004,4.038C48.636,74.357,46.698,76.259,44.316,76.259z M34.658,76.259h-0.359c-0.276,0-0.5-0.224-0.5-0.5s0.224-0.5,0.5-0.5h0.359c0.276,0,0.5,0.224,0.5,0.5S34.934,76.259,34.658,76.259z"/><path fill="#472b29" d="M42.608 70.456c-.018 0-.036-.002-.055-.006-.135-.03-.22-.164-.189-.299.037-.163.094-.324.169-.479.605-1.224 2.274-1.676 3.722-1.007.126.058.181.207.122.332-.058.125-.209.18-.331.122-1.207-.558-2.579-.208-3.063.774-.059.118-.103.242-.13.367C42.826 70.377 42.722 70.456 42.608 70.456zM37.449 76.259h-1.106c-.276 0-.5-.224-.5-.5s.224-.5.5-.5h1.106c.276 0 .5.224.5.5S37.725 76.259 37.449 76.259z"/><path fill="#f98869" d="M52.161,46.92l2.883-2.883c1.042-1.042,2.815-0.966,3.951,0.171c1.136,1.136,1.213,2.909,0.171,3.951l-2.883,2.883l1.941,1.941l2.883-2.883c2.024-2.024,1.876-5.466-0.331-7.673c-2.207-2.207-5.649-2.355-7.673-0.331l-2.883,2.883C50.867,45.626,51.514,46.273,52.161,46.92z"/><path fill="#472b29" d="M58.224,53.333c-0.09,0-0.179-0.034-0.247-0.103l-1.941-1.941c-0.066-0.066-0.103-0.155-0.103-0.248s0.036-0.182,0.103-0.248l2.883-2.883c0.905-0.906,0.829-2.457-0.171-3.456c-0.487-0.487-1.119-0.771-1.778-0.8c-0.637-0.024-1.243,0.196-1.678,0.63l-2.883,2.883c-0.137,0.137-0.357,0.137-0.494,0l-1.942-1.941c-0.136-0.137-0.136-0.358,0.001-0.495l2.883-2.883c1.049-1.049,2.497-1.59,4.029-1.523c1.539,0.066,3.009,0.725,4.138,1.854c1.13,1.129,1.788,2.599,1.854,4.137c0.067,1.55-0.474,2.981-1.523,4.03l-2.883,2.883C58.403,53.299,58.314,53.333,58.224,53.333z M56.778,51.042l1.446,1.446l2.636-2.635c0.908-0.909,1.377-2.153,1.318-3.505c-0.059-1.363-0.645-2.667-1.649-3.672c-1.006-1.005-2.311-1.591-3.673-1.65c-1.355-0.051-2.597,0.409-3.506,1.319l-2.635,2.635l1.446,1.446l2.636-2.635c0.574-0.575,1.359-0.867,2.202-0.834c0.835,0.036,1.631,0.393,2.242,1.004c1.273,1.272,1.35,3.267,0.171,4.446L56.778,51.042z"/><path fill="#f98869" d="M51.514,55.885l-2.883,2.883c-1.042,1.042-2.815,0.966-3.951-0.171c-1.136-1.136-1.213-2.909-0.171-3.951l2.883-2.883l-1.941-1.941l-2.883,2.883c-2.024,2.024-1.876,5.466,0.331,7.673c2.207,2.207,5.649,2.355,7.673,0.331l2.883-2.883C52.808,57.179,52.161,56.532,51.514,55.885z"/><path fill="#472b29" d="M47.045,62.485c-0.085,0-0.17-0.001-0.256-0.005c-1.539-0.066-3.008-0.725-4.137-1.854c-1.13-1.129-1.788-2.599-1.854-4.137c-0.067-1.55,0.474-2.981,1.523-4.03l2.883-2.883c0.131-0.131,0.363-0.131,0.494,0l1.94,1.941c0.137,0.137,0.137,0.358,0,0.495l-2.883,2.883c-0.905,0.906-0.829,2.457,0.171,3.456c0.999,0.999,2.55,1.077,3.457,0.17l2.883-2.883c0.065-0.065,0.154-0.103,0.247-0.103l0,0c0.093,0,0.182,0.037,0.248,0.103l1.94,1.941c0.066,0.065,0.103,0.155,0.103,0.248s-0.036,0.182-0.103,0.248l-2.883,2.883C49.829,61.947,48.497,62.485,47.045,62.485z M45.452,50.318l-2.636,2.635c-0.908,0.909-1.377,2.153-1.318,3.505c0.059,1.363,0.645,2.667,1.649,3.672c1.005,1.005,2.31,1.591,3.673,1.65c1.337,0.049,2.597-0.41,3.506-1.319l2.635-2.635l-1.446-1.446l-2.636,2.635c-1.179,1.178-3.174,1.103-4.445-0.17c-1.273-1.272-1.35-3.267-0.171-4.446l2.635-2.635L45.452,50.318z"/><path fill="#f98869" d="M57.087 56.298L61.243 60.454"/><path fill="#472b29" d="M61.244,60.804c-0.09,0-0.179-0.034-0.247-0.103l-4.156-4.156c-0.137-0.137-0.137-0.358,0-0.495s0.357-0.137,0.494,0l4.156,4.156c0.137,0.137,0.137,0.358,0,0.495C61.422,60.77,61.334,60.804,61.244,60.804z"/><path fill="#f98869" d="M55.683 57.349L56.101 61.608"/><path fill="#472b29" d="M56.101,61.958c-0.179,0-0.331-0.135-0.349-0.316l-0.418-4.259c-0.019-0.192,0.122-0.364,0.314-0.382c0.207-0.029,0.364,0.122,0.383,0.314l0.418,4.259c0.019,0.192-0.122,0.364-0.314,0.382C56.124,61.957,56.112,61.958,56.101,61.958z"/><path fill="#f98869" d="M57.972 54.575L62.231 54.993"/><path fill="#472b29" d="M62.231,55.343c-0.011,0-0.022,0-0.034-0.002l-4.259-0.417c-0.192-0.019-0.333-0.19-0.314-0.382c0.019-0.192,0.17-0.343,0.383-0.314l4.259,0.417c0.192,0.019,0.333,0.19,0.314,0.382C62.562,55.208,62.41,55.343,62.231,55.343z"/><path fill="#f98869" d="M46.403 45.979L42.247 41.823"/><path fill="#472b29" d="M46.403,46.329c-0.09,0-0.179-0.034-0.247-0.103L42,42.071c-0.137-0.137-0.137-0.358,0-0.495s0.357-0.137,0.494,0l4.156,4.156c0.137,0.137,0.137,0.358,0,0.495C46.582,46.295,46.493,46.329,46.403,46.329z"/><g><path fill="#f98869" d="M47.807 44.929L47.39 40.67"/><path fill="#472b29" d="M47.807,45.279c-0.179,0-0.331-0.135-0.349-0.316l-0.417-4.259c-0.019-0.192,0.122-0.364,0.314-0.382c0.207-0.031,0.364,0.122,0.383,0.314l0.417,4.259c0.019,0.192-0.122,0.364-0.314,0.382C47.83,45.279,47.818,45.279,47.807,45.279z"/></g><g><path fill="#f98869" d="M45.518 47.702L41.259 47.285"/><path fill="#472b29" d="M45.518,48.052c-0.011,0-0.022,0-0.034-0.002l-4.259-0.417c-0.192-0.019-0.333-0.19-0.314-0.382c0.019-0.192,0.176-0.346,0.383-0.314l4.259,0.417c0.192,0.019,0.333,0.19,0.314,0.382C45.849,47.917,45.697,48.052,45.518,48.052z"/></g></svg>